<svg width="33" height="30" viewBox="0 0 33 30" fill="none" xmlns="http://www.w3.org/2000/svg">
<path d="M1.125 23V5.54545H8.65909C9.95455 5.54545 11.0881 5.78125 12.0597 6.25284C13.0313 6.72443 13.7869 7.40341 14.3267 8.28977C14.8665 9.17614 15.1364 10.2386 15.1364 11.4773C15.1364 12.7273 14.858 13.7812 14.3011 14.6392C13.75 15.4972 12.9744 16.1449 11.9744 16.5824C10.9801 17.0199 9.81818 17.2386 8.48864 17.2386H3.98864V13.5568H7.53409C8.09091 13.5568 8.56534 13.4886 8.95739 13.3523C9.35511 13.2102 9.65909 12.9858 9.86932 12.679C10.0852 12.3722 10.1932 11.9716 10.1932 11.4773C10.1932 10.9773 10.0852 10.571 9.86932 10.2585C9.65909 9.94034 9.35511 9.70739 8.95739 9.55966C8.56534 9.40625 8.09091 9.32954 7.53409 9.32954H5.86364V23H1.125ZM11.3523 14.9886L15.7159 23H10.5682L6.30682 14.9886H11.3523Z" fill="#17F1D1"/>
<path d="M26.973 11.5C26.9257 10.9081 26.7037 10.4465 26.3072 10.1151C25.9165 9.78362 25.3217 9.6179 24.5227 9.6179C24.0137 9.6179 23.5965 9.68004 23.271 9.80433C22.9513 9.9227 22.7146 10.0855 22.5607 10.2926C22.4068 10.4998 22.3269 10.7365 22.321 11.0028C22.3092 11.2218 22.3477 11.4201 22.4364 11.5977C22.5311 11.7693 22.6791 11.9261 22.8803 12.0682C23.0816 12.2043 23.339 12.3286 23.6527 12.4411C23.9664 12.5535 24.3393 12.6541 24.7713 12.7429L26.2628 13.0625C27.2689 13.2756 28.1301 13.5567 28.8462 13.9059C29.5624 14.2551 30.1483 14.6664 30.604 15.1399C31.0598 15.6075 31.3942 16.1342 31.6072 16.7202C31.8262 17.3061 31.9387 17.9453 31.9446 18.6378C31.9387 19.8333 31.6398 20.8454 31.0479 21.674C30.4561 22.5026 29.6097 23.1329 28.5089 23.565C27.4139 23.997 26.0971 24.2131 24.5582 24.2131C22.978 24.2131 21.599 23.9793 20.4212 23.5117C19.2493 23.0442 18.3378 22.325 17.6868 21.3544C17.0417 20.3778 16.7161 19.129 16.7102 17.608H21.3977C21.4273 18.1643 21.5664 18.6319 21.815 19.0107C22.0636 19.3894 22.4128 19.6765 22.8626 19.8718C23.3183 20.0671 23.8598 20.1648 24.4872 20.1648C25.014 20.1648 25.4549 20.0997 25.81 19.9695C26.1651 19.8393 26.4344 19.6587 26.6179 19.4279C26.8014 19.1971 26.8961 18.9337 26.902 18.6378C26.8961 18.3596 26.8043 18.117 26.6268 17.9098C26.4551 17.6967 26.171 17.5073 25.7745 17.3416C25.378 17.17 24.8423 17.0102 24.1676 16.8622L22.3565 16.4716C20.7467 16.1224 19.4772 15.5394 18.5479 14.7227C17.6246 13.9 17.166 12.7784 17.1719 11.358C17.166 10.2038 17.4737 9.19472 18.0952 8.33061C18.7225 7.46058 19.5896 6.78291 20.6964 6.29758C21.8091 5.81226 23.0845 5.5696 24.5227 5.5696C25.9905 5.5696 27.2601 5.81522 28.3313 6.30646C29.4026 6.7977 30.2282 7.49018 30.8082 8.38388C31.3942 9.27166 31.6901 10.3104 31.696 11.5H26.973Z" fill="#17F1D1"/>
</svg>
